# xmcd
#
# Track frame offsets: 
#        150
#        23866
#        48273
#        66660
#        85961
#        109270
#        135084
#        150716
#        161307
#
# Disc length: 2569 seconds
#
# Revision: 0
# Processed by: cddbd v1.5.2PL0 Copyright (c) Steve Scherf et al.
# Submitted via: ExactAudioCopyFreeDBPlugin 1.0
#
DISCID=6c0a0709
DTITLE=クレージー・キャッツ - CRAZY MIX
DYEAR=2006
DGENRE=Blues
TTITLE0=Gakusei Bushi(Dj Ike’s Sparkling mix)
TTITLE1=これで日本も安心だ!(Flying CRAZY Dub Mix)
TTITLE2=あんた誰?
TTITLE3=ハイ それまでョ(sonicballoon breaks remix)
TTITLE4=スーダラ節(Shake U up Remix)
TTITLE5=無責任一代男(天然パーマREMIX)
TTITLE6=学生節(Asian blue mix)
TTITLE7=ドント節(TAICHI MASTER baile funk mix)
TTITLE8=クレイジー徒然 Mix2006
EXTD=
EXTT0=
EXTT1=
EXTT2=
EXTT3=
EXTT4=
EXTT5=
EXTT6=
EXTT7=
EXTT8=
PLAYORDER=
